<svg width="48" height="48" viewBox="0 0 48 48" fill="none" xmlns="http://www.w3.org/2000/svg">
<rect width="48" height="48" rx="8.6349" fill="#FFA012"/>
<path fill-rule="evenodd" clip-rule="evenodd" d="M33.9705 17.615C34.051 17.6952 34.1148 17.7905 34.1583 17.8954C34.2018 18.0003 34.2242 18.1128 34.2242 18.2264C34.2242 18.3399 34.2018 18.4524 34.1583 18.5573C34.1148 18.6622 34.051 18.7575 33.9705 18.8377L21.8817 30.9266C21.8015 31.007 21.7062 31.0708 21.6013 31.1143C21.4964 31.1578 21.3839 31.1803 21.2703 31.1803C21.1568 31.1803 21.0443 31.1578 20.9394 31.1143C20.8345 31.0708 20.7392 31.007 20.659 30.9266L14.6146 24.8821C14.4524 24.72 14.3613 24.5001 14.3613 24.2708C14.3613 24.0415 14.4524 23.8216 14.6146 23.6594C14.7767 23.4973 14.9966 23.4062 15.2259 23.4062C15.4552 23.4062 15.6751 23.4973 15.8373 23.6594L21.2703 29.0942L32.7478 17.615C32.8281 17.5346 32.9233 17.4708 33.0282 17.4273C33.1332 17.3837 33.2456 17.3613 33.3592 17.3613C33.4728 17.3613 33.5852 17.3837 33.6901 17.4273C33.795 17.4708 33.8903 17.5346 33.9705 17.615Z" fill="white"/>
</svg>
