<svg width="32" height="32" viewBox="0 0 32 32" fill="none" xmlns="http://www.w3.org/2000/svg">
<path d="M15.9993 2.66602C8.66602 2.66602 2.66602 8.66602 2.66602 15.9993C2.66602 23.3327 8.66602 29.3327 15.9993 29.3327C23.3327 29.3327 29.3327 23.3327 29.3327 15.9993C29.3327 8.66602 23.3327 2.66602 15.9993 2.66602ZM15.9993 26.666C10.1193 26.666 5.33268 21.8793 5.33268 15.9993C5.33268 10.1193 10.1193 5.33268 15.9993 5.33268C21.8793 5.33268 26.666 10.1193 26.666 15.9993C26.666 21.8793 21.8793 26.666 15.9993 26.666ZM16.666 9.33268H14.666V17.3327L21.5993 21.5993L22.666 19.866L16.666 16.266V9.33268Z" fill="#222222"/>
</svg>
