<svg width="32" height="32" viewBox="0 0 32 32" fill="none" xmlns="http://www.w3.org/2000/svg">
<path d="M25.2625 5.05263V1.68421C25.2625 1.23753 25.0851 0.809145 24.7692 0.493294C24.4534 0.177443 24.025 0 23.5783 0H8.42044C7.97376 0 7.54537 0.177443 7.22952 0.493294C6.91367 0.809145 6.73623 1.23753 6.73623 1.68421V5.05263C3.95054 5.05263 1.68359 7.31958 1.68359 10.1053V26.9474C1.68359 29.7331 3.95054 32 6.73623 32H25.2625C28.0482 32 30.3152 29.7331 30.3152 26.9474V10.1053C30.3152 7.31958 28.0482 5.05263 25.2625 5.05263ZM10.1046 3.36842H21.8941V11.7895H10.1046V3.36842ZM6.73623 8.42105V13.4737C6.73623 13.9204 6.91367 14.3487 7.22952 14.6646C7.54537 14.9805 7.97376 15.1579 8.42044 15.1579H23.5783C24.025 15.1579 24.4534 14.9805 24.7692 14.6646C25.0851 14.3487 25.2625 13.9204 25.2625 13.4737V8.42105C26.1905 8.42105 26.9468 9.17726 26.9468 10.1053V14.3158C26.9468 15.7086 25.8133 16.8421 24.4204 16.8421H7.57833C6.18549 16.8421 5.05201 15.7086 5.05201 14.3158V10.1053C5.05201 9.17726 5.80823 8.42105 6.73623 8.42105ZM25.2625 28.6316H6.73623C5.80823 28.6316 5.05201 27.8754 5.05201 26.9474V17.6623C5.7577 18.1979 6.62675 18.5263 7.57833 18.5263H24.4204C25.372 18.5263 26.2411 18.1979 26.9468 17.6623V26.9474C26.9468 27.8754 26.1905 28.6316 25.2625 28.6316ZM19.3678 8.42105H12.631C12.4076 8.42105 12.1934 8.50977 12.0355 8.6677C11.8776 8.82563 11.7889 9.03982 11.7889 9.26316C11.7889 9.4865 11.8776 9.70069 12.0355 9.85862C12.1934 10.0165 12.4076 10.1053 12.631 10.1053H19.3678C19.5911 10.1053 19.8053 10.0165 19.9633 9.85862C20.1212 9.70069 20.2099 9.4865 20.2099 9.26316C20.2099 9.03982 20.1212 8.82563 19.9633 8.6677C19.8053 8.50977 19.5911 8.42105 19.3678 8.42105ZM21.8941 23.5789H10.1046C9.88131 23.5789 9.66711 23.6677 9.50919 23.8256C9.35126 23.9835 9.26254 24.1977 9.26254 24.4211C9.26254 24.6444 9.35126 24.8586 9.50919 25.0165C9.66711 25.1744 9.88131 25.2632 10.1046 25.2632H21.8941C22.1175 25.2632 22.3317 25.1744 22.4896 25.0165C22.6475 24.8586 22.7362 24.6444 22.7362 24.4211C22.7362 24.1977 22.6475 23.9835 22.4896 23.8256C22.3317 23.6677 22.1175 23.5789 21.8941 23.5789ZM19.3678 5.05263H12.631C12.4076 5.05263 12.1934 5.14135 12.0355 5.29928C11.8776 5.4572 11.7889 5.6714 11.7889 5.89474C11.7889 6.11808 11.8776 6.33227 12.0355 6.4902C12.1934 6.64812 12.4076 6.73684 12.631 6.73684H19.3678C19.5911 6.73684 19.8053 6.64812 19.9633 6.4902C20.1212 6.33227 20.2099 6.11808 20.2099 5.89474C20.2099 5.6714 20.1212 5.4572 19.9633 5.29928C19.8053 5.14135 19.5911 5.05263 19.3678 5.05263Z" fill="white"/>
</svg>
